<?xml version="1.0" standalone="no"?>
<svg viewBox="0 0 200 200" xmlns="http://www.w3.org/2000/svg">
  <path fill="#C9EFFF" d="M42.5,-76.4C53.5,-67.3,59.7,-52.7,67,-39C74.3,-25.4,82.6,-12.7,85.4,1.6C88.2,15.9,85.5,31.8,77,43.4C68.5,55,54.4,62.3,40.6,66.6C26.8,70.9,13.4,72.1,-0.2,72.4C-13.7,72.7,-27.5,72.1,-37.5,65.6C-47.5,59.2,-53.7,46.9,-62.2,35C-70.7,23.1,-81.5,11.5,-81.5,0C-81.5,-11.5,-70.7,-23.1,-61.1,-33C-51.4,-42.9,-42.9,-51.2,-32.9,-60.9C-22.9,-70.5,-11.5,-81.5,2.1,-85.2C15.8,-88.9,31.5,-85.4,42.5,-76.4Z" transform="translate(100 100)" />
</svg>
